# xmcd
#
# Track frame offsets: 
#        150
#        11505
#        25760
#        40940
#        59195
#        73162
#        88177
#        100787
#        114057
#        129937
#        150980
#        164652
#        182055
#        193470
#        204565
#
# Disc length: 2965 seconds
#
# Revision: 2
# Processed by: cddbd v1.4PL0 Copyright (c) Steve Scherf et al.
# Submitted via: ExactAudioCopy v0.90b4
#
DISCID=cd0b930f
DTITLE=Various Artist - Country's Best - Untamed and True
DYEAR=1994
DGENRE=Country
TTITLE0=Tracy Byrd - Holdin' Heaven
TTITLE1=Reba McEntire - It's Your Call
TTITLE2=Mark Chesnutt - I Just Wanted You To Know
TTITLE3=Joan Kennedy - Circle of Love
TTITLE4=Marty Stuart - Hey Baby
TTITLE5=McBride and The Ride - Can I Count on You
TTITLE6=Trisha Yearwood - Wrong Side Of Memphis
TTITLE7=Mark Collie - Shame Shame Shame Shame
TTITLE8=George Strait - I Cross My Heart
TTITLE9=Joel Feeney - Everything To Me
TTITLE10=David Lee Murphy - Just Once
TTITLE11=The Mavericks - What A Crying Shame
TTITLE12=Kelly Willis - Heaven's Just A Sin Away
TTITLE13=George Jones - High Tech Redneck
TTITLE14=Vince Gill - I Still Believe In You
EXTD=
EXTT0=
EXTT1=
EXTT2=
EXTT3=
EXTT4=
EXTT5=
EXTT6=
EXTT7=
EXTT8=
EXTT9=
EXTT10=
EXTT11=
EXTT12=
EXTT13=
EXTT14=
PLAYORDER=
